# xmcd
#
# Track frame offsets:
#	150
#	20489
#	37889
#	56439
#	74996
#	92921
#	110815
#	129555
#	145067
#	163144
#	183483
#	200883
#	219433
#	237990
#	255915
#	273809
#	292549
#	308061
#
# Disc length: 4348 seconds
#
# Revision: 1
# Processed by: cddbd v1.5.2PL0 Copyright (c) Steve Scherf et al.
# Submitted via: audiograbber 1.83.01
#
DISCID=0b10fa12
DTITLE=Various Artist - PHMP0604
DYEAR=2006
DGENRE=karaoke
TTITLE0=Crash - Gwen Stefani
TTITLE1=Gone - Kelly Clarkson
TTITLE2=Beep - Pussycat Dolls/Will I AM
TTITLE3=For You I Will - Teddy Geiger
TTITLE4=Savin' Me - Nickelback
TTITLE5=Temperature - Sean Paul
TTITLE6=So Lonely - Twista/Mariah Carey
TTITLE7=Paperthin Hymn - Anberlin
TTITLE8=Cold (But I'm Still Here) - Evans Blue
TTITLE9=Crash - Gwen Stefani (vocal)
TTITLE10=Gone - Kelly Clarkston (vocal)
TTITLE11=Beep - Pussycat Dolls/Will I Am (vocal)
TTITLE12=For You I Willl - Teddy Geiger (vocal)
TTITLE13=Svin' Me - Nickelback (vocal)
TTITLE14=Temperature - Sean Paul (vocal)
TTITLE15=So Lonely - Twista/Mariah Carey (vocal)
TTITLE16=Paperthin Hymn - Anberlin (vocal)
TTITLE17=Cold - Evans Blue (voccal)
EXTD=
EXTT0=
EXTT1=
EXTT2=
EXTT3=
EXTT4=
EXTT5=
EXTT6=
EXTT7=
EXTT8=
EXTT9=
EXTT10=
EXTT11=
EXTT12=
EXTT13=
EXTT14=
EXTT15=
EXTT16=
EXTT17=
PLAYORDER=
